<?xml version="1.0" standalone="no"?>
<!DOCTYPE svg PUBLIC "-//W3C//DTD SVG 20010904//EN"
 "http://www.w3.org/TR/2001/REC-SVG-20010904/DTD/svg10.dtd">
<svg version="1.0" xmlns="http://www.w3.org/2000/svg"
 width="700.000000pt" height="700.000000pt" viewBox="0 0 700.000000 700.000000"
 preserveAspectRatio="xMidYMid meet">
<metadata>
Created by potrace 1.14, written by Peter Selinger 2001-2017
</metadata>
<g transform="translate(0.000000,700.000000) scale(0.100000,-0.100000)"
fill="#000000" stroke="none">
<path d="M840 6989 c-102 -13 -187 -38 -289 -85 -303 -142 -502 -421 -541
-759 -8 -72 -10 -736 -8 -2395 l3 -2295 23 -83 c83 -309 299 -557 583 -668
l67 -26 26 -67 c111 -284 359 -500 668 -583 l83 -23 2295 -3 c1659 -2 2323 0
2395 8 451 52 793 394 845 845 8 72 10 738 8 2395 l-3 2295 -26 95 c-15 52
-39 122 -53 154 -61 136 -197 304 -319 390 -56 40 -163 96 -229 121 -40 15
-48 23 -63 63 -50 132 -126 250 -227 349 -128 127 -258 202 -438 252 l-95 26
-2320 1 c-1276 1 -2349 -2 -2385 -7z m4730 -321 c187 -58 336 -182 411 -341
69 -149 63 75 67 -2477 3 -2559 7 -2390 -63 -2535 -89 -184 -251 -309 -451
-350 -71 -14 -309 -15 -2384 -13 -2106 3 -2310 5 -2358 20 -194 61 -331 175
-412 343 -70 147 -65 -46 -65 2505 0 2175 1 2319 18 2380 30 113 84 207 167
291 107 108 221 167 365 188 33 5 1082 8 2355 7 2131 -1 2299 -3 2350 -18z
m869 -756 c110 -89 190 -208 228 -342 17 -62 18 -165 18 -2385 0 -2180 -1
-2324 -18 -2385 -61 -228 -239 -406 -467 -467 -61 -17 -205 -18 -2385 -18
-2220 0 -2323 1 -2385 18 -82 23 -181 75 -245 128 -49 41 -145 153 -145 170 0
5 896 10 2263 11 l2262 3 80 22 c113 32 286 121 373 193 140 117 263 310 315
495 l22 80 3 2263 c1 1366 6 2262 11 2262 6 0 37 -22 70 -48z"/>
<path d="M3060 5449 c-330 -51 -597 -298 -677 -626 -24 -99 -21 -285 6 -386
74 -280 287 -499 566 -583 77 -23 109 -27 220 -27 138 -1 201 10 317 57 103
42 171 89 269 186 83 83 101 108 147 201 88 176 111 348 73 535 -50 242 -214
454 -438 568 -131 66 -335 98 -483 75z"/>
<path d="M2935 3386 c-542 -90 -999 -428 -1230 -911 -47 -97 -112 -281 -103
-290 2 -3 716 -4 1586 -3 l1581 3 -35 104 c-184 549 -645 957 -1221 1082 -126
27 -455 35 -578 15z"/>
</g>
</svg>
