<svg width="22" height="22" viewBox="0 0 22 22" fill="none" xmlns="http://www.w3.org/2000/svg">
<path fill-rule="evenodd" clip-rule="evenodd" d="M5 2C3.34315 2 2 3.34315 2 5V19C2 20.6569 3.34315 22 5 22H19C20.6569 22 22 20.6569 22 19V5C22 3.34315 20.6569 2 19 2H5ZM5 3C3.89543 3 3 3.89543 3 5V19C3 20.1046 3.89543 21 5 21H19C20.1046 21 21 20.1046 21 19V5C21 3.89543 20.1046 3 19 3H5Z" fill="black" fill-opacity="0.6"/>
<rect x="3" y="3" width="18" height="18" rx="2" fill="white"/>
<path fill-rule="evenodd" clip-rule="evenodd" d="M3 0C1.34315 0 0 1.34315 0 3V17C0 18.6569 1.34315 20 3 20H17C18.6569 20 20 18.6569 20 17V3C20 1.34315 18.6569 0 17 0H3ZM3 1C1.89543 1 1 1.89543 1 3V17C1 18.1046 1.89543 19 3 19H17C18.1046 19 19 18.1046 19 17V3C19 1.89543 18.1046 1 17 1H3Z" fill="black" fill-opacity="0.6"/>
<path fill-rule="evenodd" clip-rule="evenodd" d="M3 1C1.89543 1 1 1.89543 1 3V17C1 18.1046 1.89543 19 3 19H17C18.1046 19 19 18.1046 19 17V3C19 1.89543 18.1046 1 17 1H3ZM7.4173 7.41803C7.4173 5.99211 8.57323 4.83618 9.99915 4.83618C11.4251 4.83618 12.581 5.99211 12.581 7.41803C12.581 8.84395 11.4251 9.99988 9.99915 9.99988C8.57323 9.99988 7.4173 8.84395 7.4173 7.41803ZM5 15.1635C5.57323 12.9363 7.59494 11.2907 10.001 11.2907C12.4071 11.2907 14.4288 12.9363 15.002 15.1635H5Z" fill="white"/>
<path fill-rule="evenodd" clip-rule="evenodd" d="M9.99915 4.83618C8.57323 4.83618 7.4173 5.99211 7.4173 7.41803C7.4173 8.84395 8.57323 9.99988 9.99915 9.99988C11.4251 9.99988 12.581 8.84395 12.581 7.41803C12.581 5.99211 11.4251 4.83618 9.99915 4.83618ZM10.001 11.2907C7.59494 11.2907 5.57323 12.9363 5 15.1635H15.002C14.4288 12.9363 12.4071 11.2907 10.001 11.2907Z" fill="black" fill-opacity="0.6"/>
</svg>
